<svg role="img" focusable="false" aria-hidden="true" xmlns="http://www.w3.org/2000/svg" viewBox="0 0 14 14"><path d="m 14,11.000004 v 0.999997 q 0,0.203128 -0.148435,0.351563 -0.148435,0.148435 -0.351563,0.148435 H 0.4999995 q -0.2031248,0 -0.3515622,-0.148435 Q 0,12.203129 0,12.000001 V 11.000004 Q 0,10.796876 0.1484373,10.648441 0.2968747,10.499994 0.4999995,10.499994 H 13.500002 q 0.203128,0 0.351563,0.148447 Q 14,10.796876 14,11.000004 Z M 10.999998,8.0000025 v 0.9999967 q 0,0.2031283 -0.148435,0.3515633 Q 10.703128,9.4999975 10.5,9.4999975 H 0.4999995 q -0.2031248,0 -0.3515622,-0.148435 Q 0,9.2031275 0,8.9999992 V 8.0000025 Q 0,7.7968742 0.1484373,7.6484392 0.2968747,7.5000042 0.4999995,7.5000042 H 10.5 q 0.203128,0 0.351563,0.148435 0.148435,0.148435 0.148435,0.3515633 z m 2.000005,-3.0000016 v 0.9999966 q 0,0.2031284 -0.148435,0.3515634 -0.148446,0.148435 -0.351563,0.148435 H 0.4999995 q -0.2031248,0 -0.3515622,-0.148435 Q 0,6.2031259 0,5.9999975 V 5.0000009 Q 0,4.7968725 0.1484373,4.6484375 0.2968747,4.5000025 0.4999995,4.5000025 H 12.500005 q 0.203117,0 0.351563,0.148435 0.148435,0.148435 0.148435,0.3515634 z M 10.000002,1.9999992 v 0.9999967 q 0,0.2031283 -0.148435,0.3515633 -0.148447,0.148435 -0.351564,0.148435 H 0.4999995 q -0.2031248,0 -0.3515622,-0.148435 Q 0,3.2031242 0,2.9999959 V 1.9999992 Q 0,1.7968709 0.1484373,1.6484358 0.2968747,1.5000008 0.4999995,1.5000008 H 9.500003 q 0.203117,0 0.351564,0.148435 0.148435,0.1484351 0.148435,0.3515634 z"/></svg>
