<svg role="img" focusable="false" aria-hidden="true" xmlns="http://www.w3.org/2000/svg" viewBox="0 0 14 14"><path d="m 14,11.000004 v 0.999997 q 0,0.203128 -0.148435,0.351563 -0.148435,0.148435 -0.351563,0.148435 H 0.4999995 q -0.2031248,0 -0.3515622,-0.148435 Q 0,12.203129 0,12.000001 V 11.000004 Q 0,10.796876 0.1484373,10.648441 0.2968747,10.499994 0.4999995,10.499994 H 13.500002 q 0.203128,0 0.351563,0.148447 Q 14,10.796876 14,11.000004 Z m 0,-3.0000015 v 0.9999967 q 0,0.2031283 -0.148435,0.3515633 -0.148435,0.148435 -0.351563,0.148435 H 3.5 q -0.2031283,0 -0.3515633,-0.148435 -0.148435,-0.148435 -0.148435,-0.3515633 V 8.0000025 q 0,-0.2031283 0.148435,-0.3515633 Q 3.2968717,7.5000042 3.5,7.5000042 h 10.000002 q 0.203128,0 0.351563,0.148435 Q 14,7.7968742 14,8.0000025 Z m 0,-3.0000016 v 0.9999966 q 0,0.2031284 -0.148435,0.3515634 -0.148435,0.148435 -0.351563,0.148435 H 1.499995 q -0.2031167,0 -0.3515575,-0.148435 Q 1.0000002,6.2031259 1.0000002,5.9999975 V 5.0000009 q 0,-0.2031284 0.1484373,-0.3515634 0.1484408,-0.148435 0.3515575,-0.148435 h 12.000007 q 0.203128,0 0.351563,0.148435 Q 14,4.7968725 14,5.0000009 Z m 0,-3.0000017 v 0.9999967 q 0,0.2031283 -0.148435,0.3515633 -0.148435,0.148435 -0.351563,0.148435 H 4.4999967 q -0.2031167,0 -0.3515634,-0.148435 -0.148435,-0.148435 -0.148435,-0.3515633 V 1.9999992 q 0,-0.2031283 0.148435,-0.3515634 0.1484467,-0.148435 0.3515634,-0.148435 h 9.0000053 q 0.203128,0 0.351563,0.148435 Q 14,1.7968709 14,1.9999992 Z"/></svg>
