<svg role="img" focusable="false" aria-hidden="true" xmlns="http://www.w3.org/2000/svg" viewBox="0 0 14 14"><path d="M 3.0000017,4.7500017 V 9.25001 q 0,0.1015 -0.0742,0.1757817 -0.0742,0.0742 -0.1757817,0.0742 -0.1093167,0 -0.1796783,-0.07035 L 0.3203363,7.1796434 q -0.070315,-0.07035 -0.070315,-0.17969 0,-0.1093167 0.070315,-0.1796784 L 2.5703417,4.5702767 q 0.07035,-0.07035 0.1796783,-0.07035 0.1016167,0 0.1757817,0.0742 0.0742,0.0742 0.0742,0.1757817 z M 14,10.750005 V 12.25 q 0,0.101617 -0.0742,0.175782 -0.0742,0.0742 -0.175782,0.0742 H 0.2500003 q -0.1015583,0 -0.1757816,-0.0742 Q 0,12.35157 0,12.25 v -1.499995 q 0,-0.101617 0.074223,-0.175782 0.074223,-0.0742 0.1757817,-0.0742 H 13.75 q 0.101616,0 0.175781,0.0742 0.0742,0.0742 0.0742,0.175782 z M 14,7.7500034 V 9.25001 q 0,0.1015 -0.0742,0.1757817 -0.0742,0.0742 -0.175782,0.0742 H 5.25 q -0.1016167,0 -0.1757817,-0.0742 -0.0742,-0.0742 -0.0742,-0.1757817 V 7.7500034 q 0,-0.1015 0.0742,-0.1757817 0.0742,-0.0742 0.1757817,-0.0742 h 8.499995 q 0.101617,0 0.175782,0.0742 0.0742,0.0742 0.0742,0.1757817 z m 0,-3.0000017 v 1.5000067 q 0,0.1015 -0.0742,0.1757816 -0.0742,0.0742 -0.175782,0.0742 H 5.25 q -0.1016167,0 -0.1757817,-0.0742 -0.0742,-0.0742 -0.0742,-0.1757816 V 4.7500017 q 0,-0.1015 0.0742,-0.1757817 0.0742,-0.0742 0.1757817,-0.0742 h 8.499995 q 0.101617,0 0.175782,0.0742 0.0742,0.0742 0.0742,0.1757817 z M 14,1.75 v 1.5000067 q 0,0.1016167 -0.0742,0.1757817 -0.0742,0.0742 -0.175782,0.0742 H 0.2500003 q -0.1015583,0 -0.1757816,-0.0742 Q 0,3.351565 0,3.2500067 V 1.75 q 0,-0.1016167 0.074223,-0.1757817 0.074223,-0.0742 0.1757817,-0.0742 H 13.75 q 0.101616,0 0.175781,0.0742 0.0742,0.0742 0.0742,0.1757817 z"/></svg>
