<svg role="img" focusable="false" aria-hidden="true" xmlns="http://www.w3.org/2000/svg" viewBox="0 0 14 14"><path d="m 11.712237,7 q 0,-0.24605 -0.164057,-0.4102 L 10.71875,5.7604167 7.419265,2.4609667 Q 7.2552083,2.2969333 7.0091117,2.2969333 q -0.2460967,0 -0.4101534,0.1640334 L 5.7695283,3.29035 q -0.1640566,0.1640333 -0.1640566,0.4102 0,0.24605 0.1640566,0.4100833 l 1.7226534,1.7227 h -4.575515 q -0.236985,0 -0.4101534,0.1731334 -0.17318,0.17325 -0.17318,0.4102 v 1.1666666 q 0,0.23695 0.17318,0.4102 0.1731684,0.1731334 0.4101534,0.1731334 h 4.575515 l -1.7226534,1.7227 q -0.17318,0.1731333 -0.17318,0.4100833 0,0.237067 0.17318,0.4102 l 0.82943,0.829383 q 0.1640567,0.16415 0.4101534,0.16415 0.2460966,0 0.4101533,-0.16415 L 10.71875,8.2395833 11.54818,7.4102 Q 11.712237,7.24605 11.712237,7 Z M 14,7 q 0,1.9049333 -0.938805,3.51365 -0.938805,1.608717 -2.547522,2.547533 Q 8.904945,14 7,14 5.095055,14 3.4863267,13.061183 1.8775983,12.122367 0.938805,10.51365 0,8.9049333 0,7 0,5.0950667 0.938805,3.48635 1.8775983,1.8776333 3.4863267,0.93881667 5.095055,0 7,0 8.904945,0 10.513673,0.93881667 12.12239,1.8776333 13.061195,3.48635 14,5.0950667 14,7 Z"/></svg>
