<svg role="img" focusable="false" aria-hidden="true" xmlns="http://www.w3.org/2000/svg" viewBox="0 0 14 14"><path d="M 11.66669,7.5831 V 6.4169 q 0,-0.238 -0.1729,-0.413 -0.1729,-0.175 -0.4102,-0.175 H 6.50811 L 8.23074,4.1062 q 0.1729,-0.175 0.1729,-0.413 0,-0.238 -0.1729,-0.413 L 7.40131,2.4507 q -0.1638,-0.168 -0.4102,-0.168 -0.2464,0 -0.4102,0.168 L 3.28146,5.7498 2.45203,6.5793 q -0.1638,0.161 -0.1638,0.413 0,0.245 0.1638,0.413 l 0.82943,0.8295 3.29945,3.2991 q 0.1638,0.168 0.4102,0.168 0.2457,0 0.4102,-0.168 l 0.82943,-0.8295 q 0.1638,-0.161 0.1638,-0.413 0,-0.245 -0.1638,-0.413 L 6.50811,8.1557 h 4.57548 q 0.2373,0 0.4102,-0.175 0.1729,-0.175 0.1729,-0.413 z M 14,7 q 0,1.9047 -0.93877,3.514 -0.93884,1.6086 -2.54758,2.5473 Q 8.90498,14 7,14 5.09502,14 3.48635,13.0613 1.87761,12.1226 0.93877,10.514 0,8.9047 0,7 0,5.0953 0.93877,3.486 1.87761,1.8774 3.48635,0.9387 5.09502,0 7,0 8.90498,0 10.51365,0.9387 12.12239,1.8774 13.06123,3.486 14,5.0953 14,7 Z"/></svg>
