<svg role="img" focusable="false" aria-hidden="true" xmlns="http://www.w3.org/2000/svg" viewBox="0 0 14 14"><path d="M 9.5,2.4999998 Q 9.5,2.7031247 9.3515625,2.851583 9.203125,3.0000005 9.0000002,3.0000005 H 7.9999999 V 11 h 1.0000003 q 0.2031248,0 0.3515624,0.148458 0.1484375,0.148417 0.1484375,0.351542 0,0.203125 -0.1484375,0.351583 L 7.3515624,13.851584 Q 7.2031249,14 6.9999999,14 6.7968749,14 6.6484374,13.851584 l -2,-2.000001 Q 4.4999999,11.703125 4.4999999,11.5 q 0,-0.203125 0.1484375,-0.351542 Q 4.7968749,11 4.9999999,11 h 1 V 3.0000005 h -1 q -0.203125,0 -0.3515626,-0.1484175 -0.1484374,-0.1484583 -0.1484374,-0.3515832 0,-0.2031248 0.1484374,-0.3515411 L 6.6484374,0.14845833 Q 6.7968749,0 6.9999999,0 7.2031249,0 7.3515624,0.14845833 L 9.3515625,2.1484587 Q 9.5,2.296875 9.5,2.4999998 Z"/></svg>
