<svg role="img" focusable="false" aria-hidden="true" xmlns="http://www.w3.org/2000/svg" viewBox="0 0 14 14"><path d="m 11.703125,6.9909 q 0,-0.24605 -0.164068,-0.4102 L 8.2395833,3.28125 7.4101533,2.4518667 Q 7.2460967,2.2877167 7,2.2877167 q -0.2460967,0 -0.4101533,0.16415 L 5.7604167,3.28125 2.4609317,6.5807 Q 2.296875,6.74485 2.296875,6.9909 q 0,0.24605 0.1640567,0.4102 l 0.82943,0.8293833 Q 3.45443,8.3945167 3.700515,8.3945167 q 0.2460967,0 0.410165,-0.1640334 l 1.7226533,-1.7227 v 4.5755497 q 0,0.23695 0.17318,0.4102 0.1731684,0.173134 0.4101534,0.173134 h 1.1666666 q 0.2369734,0 0.4101534,-0.173134 0.17318,-0.17325 0.17318,-0.4102 V 6.5077833 l 1.7226533,1.7227 q 0.17318,0.1731334 0.410153,0.1731334 0.236985,0 0.410165,-0.1731334 L 11.539057,7.4011 Q 11.703125,7.23695 11.703125,6.9909 Z M 14,7 q 0,1.9049333 -0.938805,3.51365 -0.938805,1.608717 -2.547522,2.547533 Q 8.904945,14 7,14 5.095055,14 3.4863267,13.061183 1.8775983,12.122367 0.938805,10.51365 0,8.9049333 0,7 0,5.0950667 0.938805,3.48635 1.8775983,1.8776333 3.4863267,0.93881667 5.095055,0 7,0 8.904945,0 10.513673,0.93881667 12.12239,1.8776333 13.061195,3.48635 14,5.0950667 14,7 Z"/></svg>
