<svg role="img" focusable="false" aria-hidden="true" xmlns="http://www.w3.org/2000/svg" viewBox="0 0 14 14"><path d="m 11.703125,7.0091 q 0,-0.24605 -0.164068,-0.4100833 l -0.829419,-0.8295 Q 10.54557,5.6054833 10.299473,5.6054833 q -0.246085,0 -0.410153,0.1640334 l -1.7226533,1.7227 v -4.57555 q 0,-0.23695 -0.17318,-0.4102 Q 7.8203067,2.3333333 7.5833333,2.3333333 H 6.4166667 q -0.236985,0 -0.4101534,0.1731334 -0.17318,0.17325 -0.17318,0.4102 v 4.57555 L 4.11068,5.7695167 Q 3.9375,5.5963833 3.700515,5.5963833 q -0.2369733,0 -0.4101533,0.1731334 l -0.82943,0.8295 Q 2.296875,6.76305 2.296875,7.0091 q 0,0.2461667 0.1640567,0.4102 l 3.299485,3.29945 0.82943,0.829383 Q 6.7539033,11.712283 7,11.712283 q 0.2460967,0 0.4101533,-0.16415 L 8.2395833,10.71875 11.539057,7.4193 Q 11.703125,7.2552667 11.703125,7.0091 Z M 14,7 q 0,1.9049333 -0.938805,3.51365 -0.938805,1.608717 -2.547522,2.547533 Q 8.904945,14 7,14 5.095055,14 3.4863267,13.061183 1.8775983,12.122367 0.938805,10.51365 0,8.9049333 0,7 0,5.0950667 0.938805,3.48635 1.8775983,1.8776333 3.4863267,0.93881667 5.095055,0 7,0 8.904945,0 10.513673,0.93881667 12.12239,1.8776333 13.061195,3.48635 14,5.0950667 14,7 Z"/></svg>
