<svg role="img" focusable="false" aria-hidden="true" xmlns="http://www.w3.org/2000/svg" viewBox="0 0 14 14"><path d="m 6.4615367,8.6153842 v 3.2307678 q 0,0.4375 -0.3197134,0.757214 Q 5.82211,12.923079 5.38461,12.923079 H 1.0769232 q -0.4375,0 -0.7572122,-0.319713 Q 0,12.283652 0,11.846152 V 8.6153842 Q 0,8.1778842 0.319711,7.8581709 0.6394232,7.5384692 1.0769232,7.5384692 H 5.38461 q 0.4375,0 0.7572133,0.3197017 0.3197134,0.3197133 0.3197134,0.7572133 z m 0,-6.4615367 v 3.2307684 q 0,0.4375 -0.3197134,0.7572133 Q 5.82211,6.4615425 5.38461,6.4615425 H 1.0769232 q -0.4375,0 -0.7572122,-0.3197133 Q 0,5.8221159 0,5.3846159 V 2.1538475 Q 0,1.7163475 0.319711,1.3966342 0.6394232,1.0769208 1.0769232,1.0769208 H 5.38461 q 0.4375,0 0.7572133,0.3197134 0.3197134,0.3197133 0.3197134,0.7572133 z M 14,8.6153842 v 3.2307678 q 0,0.4375 -0.319713,0.757214 -0.319714,0.319713 -0.757214,0.319713 H 8.61539 q -0.4375,0 -0.7572133,-0.319713 Q 7.5384633,12.283652 7.5384633,11.846152 V 8.6153842 q 0,-0.4375 0.3197134,-0.7572133 Q 8.17789,7.5384692 8.61539,7.5384692 h 4.307683 q 0.4375,0 0.757214,0.3197017 Q 14,8.1778842 14,8.6153842 Z m 0,-6.4615367 v 3.2307684 q 0,0.4375 -0.319713,0.7572133 -0.319714,0.3197133 -0.757214,0.3197133 H 8.61539 q -0.4375,0 -0.7572133,-0.3197133 Q 7.5384633,5.8221159 7.5384633,5.3846159 V 2.1538475 q 0,-0.4375 0.3197134,-0.7572133 Q 8.17789,1.0769208 8.61539,1.0769208 h 4.307683 q 0.4375,0 0.757214,0.3197134 Q 14,1.7163475 14,2.1538475 Z"/></svg>
