<svg role="img" focusable="false" aria-hidden="true" xmlns="http://www.w3.org/2000/svg" viewBox="0 0 14 14"><path d="m 12.041425,5.32698 c 0.583731,-0.54045 0.875672,-1.20086 0.875672,-1.98089 0,-1.03317 -0.442098,-1.84915 -1.326384,-2.44794 C 10.706367,0.29947 9.048263,0 6.616538,0 H 5.849765 L 0.450779,0.15399 V 1.2933 c 0.766849,0 1.264248,0.11982 1.492274,0.35922 0.227965,0.23964 0.341902,0.68767 0.341902,1.34456 v 8.15981 c 0,0.67739 -0.120921,1.13078 -0.362674,1.35996 -0.241904,0.2293 -0.732334,0.34384 -1.471502,0.34384 V 14 h 7.367887 c 2.051808,0 3.51975,-0.32489 4.404171,-0.97507 0.884211,-0.65 1.326384,-1.53959 1.326384,-2.66863 0,-1.00591 -0.345448,-1.82187 -1.036298,-2.44795 C 11.822088,7.28229 10.78579,6.84602 9.40418,6.59968 10.578552,6.29178 11.457558,5.86763 12.041425,5.32698 Z M 5.963777,1.21121 c 0.746062,0 1.310801,0.0548 1.694263,0.16418 0.383387,0.10955 0.69254,0.35251 0.927474,0.72872 0.234784,0.37645 0.352282,0.88964 0.352282,1.53965 0,0.86902 -0.186452,1.47971 -0.55952,1.83204 C 8.005192,5.82831 7.438688,6.00438 6.678749,6.00438 H 5.963777 Z m 0.673548,6.04542 c 0.732183,0 1.285035,0.0718 1.658028,0.21558 0.373069,0.14364 0.666654,0.42248 0.880862,0.83647 0.214087,0.41406 0.321191,0.98708 0.321191,1.71917 0,0.91703 -0.164186,1.6047 -0.49221,2.063 -0.328161,0.45856 -0.820431,0.68773 -1.476616,0.68773 -0.421537,0 -0.747917,-0.0667 -0.979367,-0.20014 C 6.317703,12.44502 6.162267,12.27923 6.082919,12.08064 6.003419,11.88228 5.963777,11.59151 5.963777,11.20822 V 7.25663 Z"/></svg>
