<svg role="img" focusable="false" aria-hidden="true" xmlns="http://www.w3.org/2000/svg" viewBox="0 0 14 14"><path d="M 10.607269,3.660891 H 8.3341086 c -0.4319292,0 -0.7816562,0.34685 -0.7830236,0.7718667 0,0.4263 0.3483131,0.7704667 0.7802528,0.7704667 h 2.2731382 c 1.011534,0 1.833584,0.8094334 1.832203,1.8084501 -0.0014,0.9990168 -0.824819,1.8127668 -1.837767,1.8127668 H 8.3257518 c -0.4319292,0 -0.7816563,0.3469667 -0.7816563,0.7718668 0,0.4264169 0.3483481,0.7704669 0.7802644,0.7704669 h 2.2731151 c 1.874047,0 3.399734,-1.5090837 3.402516,-3.3580171 0.0042,-1.8475335 -1.518698,-3.3509003 -3.392722,-3.3481003 z M 5.6296549,8.831558 H 3.3955534 c -1.0115456,0 -1.8336291,-0.8108334 -1.8322268,-1.8084501 0.0014,-0.9990168 0.8262334,-1.8127668 1.837779,-1.8141668 h 2.2341481 c 0.4319281,0 0.7816434,-0.3468501 0.7816434,-0.7718668 0,-0.4263 -0.3483247,-0.7704667 -0.780241,-0.7704667 H 3.4025196 C 1.5284958,3.6666076 0.00278499,5.1755744 3.6941475e-6,7.0245079 -0.00279631,8.8734413 1.5201156,10.376808 3.3941277,10.374008 h 2.2341482 c 0.4319164,0 0.781655,-0.345567 0.7830352,-0.7718666 C 6.4112994,9.1757247 6.0615841,8.8316747 5.6296549,8.8316747 Z m 2.9875337,4.600051 c 0.1754259,0.2996 0.5998429,0.3815 0.9021069,0.2093 0.302459,-0.172317 0.461368,-0.5866 0.285943,-0.8862 L 8.9250265,11.339425 C 8.7497173,11.039942 8.3066149,10.968542 8.0043747,11.140742 7.7019269,11.313059 7.561725,11.716842 7.737047,12.016442 Z M 6.1505308,12.016442 c 0.1753208,-0.2996 0.035105,-0.703383 -0.2673289,-0.8757 -0.3022273,-0.1722 -0.7453414,-0.100333 -0.9206517,0.198683 l -0.8802104,1.415284 c -0.1754259,0.2996 -0.01652,0.713883 0.285943,0.8862 0.3022624,0.1722 0.7266806,0.091 0.9021064,-0.2093 z M 7.7370354,1.9834575 c -0.175322,0.2994834 -0.035105,0.7033834 0.2673277,0.8755834 0.3022285,0.1722 0.7453425,0.1003333 0.9206517,-0.1985667 L 9.8052265,1.2450741 C 9.9806525,0.94547407 9.8217465,0.5311907 9.5192835,0.35887402 9.2170195,0.18679068 8.7926028,0.26904072 8.6171769,0.56817404 Z M 5.2703892,0.56817404 C 5.0949634,0.26857402 4.6705452,0.18679068 4.3682828,0.35887402 4.0658221,0.5311907 3.9069139,0.94547407 4.0823398,1.2450741 l 0.8802104,1.4154001 c 0.1753103,0.2994834 0.6184127,0.3707667 0.9206517,0.1985667 0.302449,-0.1722 0.4426497,-0.5761 0.2673289,-0.8755834 z"/></svg>
