<svg role="img" focusable="false" aria-hidden="true" xmlns="http://www.w3.org/2000/svg" viewBox="0 0 14 14"><path d="m 4.3759472,10.358458 -0.382514,0.382514 q -0.076533,0.07653 -0.1759562,0.07653 -0.0994,0 -0.1759563,-0.07653 L 0.0765043,7.175951 Q 1.5e-6,7.0994178 1.5e-6,6.9999947 q 0,-0.099516 0.0764981,-0.1759562 L 3.6415161,3.2590174 q 0.076533,-0.076533 0.1759562,-0.076533 0.099516,0 0.1759562,0.076533 l 0.3825141,0.3825141 q 0.076533,0.076533 0.076533,0.1759562 0,0.0994 -0.076533,0.1759562 L 1.3693917,6.9999947 4.3759426,10.006546 q 0.076533,0.07653 0.076533,0.175956 0,0.0994 -0.076533,0.175956 z M 8.8972476,2.1956384 6.0437047,12.072112 q -0.030567,0.09952 -0.1185797,0.149181 -0.087966,0.0497 -0.1797829,0.01913 L 5.2710233,12.110378 q -0.0994,-0.03057 -0.1491813,-0.11858 -0.0497,-0.08797 -0.019133,-0.187436 L 7.9562516,1.9278891 q 0.030567,-0.099516 0.1185797,-0.1491813 0.087967,-0.0497 0.1797829,-0.019133 l 0.4743188,0.130048 q 0.0994,0.030567 0.1491813,0.1185797 0.0497,0.087967 0.019133,0.1874362 z m 5.0262214,4.9803126 -3.565021,3.565021 q -0.07653,0.07653 -0.175956,0.07653 -0.09952,0 -0.175957,-0.07653 L 9.6240205,10.358458 q -0.07653,-0.07653 -0.07653,-0.175956 0,-0.09952 0.07653,-0.175956 L 12.630571,6.9999947 9.6240205,3.9934439 q -0.07653,-0.076533 -0.07653,-0.1759562 0,-0.0994 0.07653,-0.1759562 L 10.006535,3.2590174 q 0.07653,-0.076533 0.175957,-0.076533 0.0994,0 0.175956,0.076533 l 3.56502,3.5650211 q 0.07653,0.076533 0.07653,0.1759562 0,0.0994 -0.07653,0.1759563 z"/></svg>
