<?xml version="1.0" encoding="UTF-8" standalone="no"?>
<svg
   xmlns:dc="http://purl.org/dc/elements/1.1/"
   xmlns:cc="http://creativecommons.org/ns#"
   xmlns:rdf="http://www.w3.org/1999/02/22-rdf-syntax-ns#"
   xmlns:svg="http://www.w3.org/2000/svg"
   xmlns="http://www.w3.org/2000/svg"
   xmlns:sodipodi="http://sodipodi.sourceforge.net/DTD/sodipodi-0.dtd"
   xmlns:inkscape="http://www.inkscape.org/namespaces/inkscape"
   role="img"
   focusable="false"
   aria-hidden="true"
   viewBox="0 0 14 14"
   version="1.1"
   id="svg4"
   sodipodi:docname="help.svg"
   inkscape:version="0.92.5 (2060ec1f9f, 2020-04-08)">
  <metadata
     id="metadata10">
    <rdf:RDF>
      <cc:Work
         rdf:about="">
        <dc:format>image/svg+xml</dc:format>
        <dc:type
           rdf:resource="http://purl.org/dc/dcmitype/StillImage" />
      </cc:Work>
    </rdf:RDF>
  </metadata>
  <defs
     id="defs8" />
  <sodipodi:namedview
     pagecolor="#ffffff"
     bordercolor="#666666"
     borderopacity="1"
     objecttolerance="10"
     gridtolerance="10"
     guidetolerance="10"
     inkscape:pageopacity="0"
     inkscape:pageshadow="2"
     inkscape:window-width="1366"
     inkscape:window-height="708"
     id="namedview6"
     showgrid="false"
     inkscape:zoom="16.857143"
     inkscape:cx="7"
     inkscape:cy="7"
     inkscape:window-x="0"
     inkscape:window-y="0"
     inkscape:window-maximized="1"
     inkscape:current-layer="svg4" />
  <path
     d="M 7,0 C 3.1343748,0 0,3.1343783 0,7 c 0,3.865622 3.1343748,7 7,7 3.865625,0 7,-3.134378 7,-7 C 14,3.1343783 10.865625,0 7,0 Z M 12.571875,4.7656233 10.65,5.3562483 C 10.453125,4.9187483 10.178125,4.518745 9.828125,4.168745 c -0.35,-0.35 -0.75,-0.624995 -1.1875,-0.82187 L 9.23125,1.4250017 c 0.74375,0.29687 1.425001,0.7468766 2.009374,1.3281216 0.584376,0.5874984 1.034377,1.26875 1.331251,2.0125 z M 7,10.000002 C 5.3437498,10.000002 3.9999995,8.6562467 3.9999995,7 3.9999995,5.3437533 5.3437498,3.9999983 7,3.9999983 c 1.6562502,0 3.000001,1.343755 3.000001,3.0000017 0,1.6562467 -1.3437508,3.000002 -3.000001,3.000002 z M 2.75625,2.75625 C 3.3406252,2.1718783 4.0218745,1.7249983 4.7656245,1.4281283 l 0.590625,1.9218734 c -0.4375,0.196875 -0.8374998,0.47187 -1.1874998,0.82187 -0.35,0.35 -0.6249997,0.7500033 -0.8218747,1.1875033 L 1.4250005,4.76875 C 1.7249995,4.0218733 2.1750003,3.3406217 2.75625,2.75625 Z M 1.4281248,9.2343767 3.3500005,8.6437517 c 0.196875,0.4375 0.4718747,0.8375033 0.8218747,1.1875033 0.35,0.35 0.7499998,0.624995 1.1874998,0.82187 L 4.76875,12.574998 C 4.025,12.278128 3.3437495,11.828122 2.7593755,11.246877 2.1750003,10.659378 1.7249995,9.9781267 1.4281248,9.2343767 Z M 11.24375,11.24375 c -0.584375,0.584372 -1.265624,1.031252 -2.009375,1.328122 L 8.6437505,10.649998 C 9.08125,10.453123 9.48125,10.178128 9.83125,9.8281283 c 0.35,-0.35 0.625,-0.7500033 0.821875,-1.1875033 L 12.574999,9.23125 C 12.275,9.9781267 11.825,10.659378 11.24375,11.24375 Z"
     id="path2"
     inkscape:connector-curvature="0"
     style="stroke-width:1.16666663" />
</svg>
