<?xml version="1.0" encoding="UTF-8" standalone="no"?>
<svg
   xmlns:dc="http://purl.org/dc/elements/1.1/"
   xmlns:cc="http://creativecommons.org/ns#"
   xmlns:rdf="http://www.w3.org/1999/02/22-rdf-syntax-ns#"
   xmlns:svg="http://www.w3.org/2000/svg"
   xmlns="http://www.w3.org/2000/svg"
   xmlns:sodipodi="http://sodipodi.sourceforge.net/DTD/sodipodi-0.dtd"
   xmlns:inkscape="http://www.inkscape.org/namespaces/inkscape"
   role="img"
   focusable="false"
   aria-hidden="true"
   viewBox="0 0 14 14"
   version="1.1"
   id="svg4"
   sodipodi:docname="inline.svg"
   inkscape:version="0.92.5 (2060ec1f9f, 2020-04-08)">
  <metadata
     id="metadata10">
    <rdf:RDF>
      <cc:Work
         rdf:about="">
        <dc:format>image/svg+xml</dc:format>
        <dc:type
           rdf:resource="http://purl.org/dc/dcmitype/StillImage" />
      </cc:Work>
    </rdf:RDF>
  </metadata>
  <defs
     id="defs8" />
  <sodipodi:namedview
     pagecolor="#ffffff"
     bordercolor="#666666"
     borderopacity="1"
     objecttolerance="10"
     gridtolerance="10"
     guidetolerance="10"
     inkscape:pageopacity="0"
     inkscape:pageshadow="2"
     inkscape:window-width="1366"
     inkscape:window-height="708"
     id="namedview6"
     showgrid="false"
     inkscape:zoom="16.857143"
     inkscape:cx="7"
     inkscape:cy="7"
     inkscape:window-x="0"
     inkscape:window-y="0"
     inkscape:window-maximized="1"
     inkscape:current-layer="svg4" />
  <path
     d="M 0.8700909,12.260797 H 1.7491025 V 11.381785 H 0.8700909 Z M 0,11.412463 h 0.8790116 v -0.87901 H 0 Z M 10.924584,7.5506058 C 10.924579,6.9844895 10.807451,6.5410763 10.5732,6.220365 10.341729,5.8968722 10.022415,5.7351239 9.615259,5.7351197 9.208096,5.7351239 8.8873891,5.8968722 8.6531355,6.220365 8.4216663,6.5410763 8.3059326,6.9844895 8.3059341,7.5506058 8.3059326,8.1167263 8.4216663,8.5615343 8.6531355,8.88503 8.8873891,9.2057385 9.208096,9.3660933 9.615259,9.3660922 10.022415,9.3660933 10.341729,9.2057385 10.5732,8.88503 10.807451,8.5615343 10.924579,8.1167263 10.924584,7.5506058 M 8.3059341,5.9149952 C 8.4676808,5.6361228 8.6712607,5.4297544 8.9166734,5.2958893 9.164871,5.1592444 9.460479,5.0909197 9.8035,5.0909152 c 0.568905,4.5e-6 1.030445,0.2258945 1.384622,0.6776698 0.356958,0.4517836 0.535437,1.0457899 0.535443,1.7820208 -6e-6,0.7362357 -0.178485,1.3302417 -0.535443,1.7820217 -0.354177,0.4517788 -0.815717,0.6776685 -1.384622,0.6776685 -0.343021,0 -0.638629,-0.066932 -0.8868266,-0.20079 C 8.6712607,9.6728567 8.4676808,9.4650943 8.3059341,9.1862167 V 9.8889852 H 7.5320518 V 3.3800079 h 0.7738823 v 2.5349873 m -3.4338219,1.618878 c -0.621897,2.3e-6 -1.0527606,0.071115 -1.2925927,0.2133406 -0.2398351,0.1422284 -0.3597519,0.3848519 -0.3597506,0.7278682 -1.3e-6,0.2732998 0.089239,0.4908237 0.2677214,0.6525703 0.1812679,0.1589607 0.4266792,0.238441 0.736234,0.2384399 0.4266783,1.1e-6 0.7683017,-0.1505934 1.0248711,-0.45178 0.2593516,-0.3039739 0.3890291,-0.706951 0.3890327,-1.20893 V 7.5338731 H 4.8721122 M 6.4073273,7.215954 V 9.8889852 H 5.6376281 V 9.1778493 C 5.4619325,9.4623037 5.2430145,9.6728567 4.980874,9.809506 4.7187273,9.9433658 4.3980196,10.010296 4.01875,10.010296 3.5390809,10.010296 3.1570204,9.8764365 2.8725677,9.6087145 2.5909017,9.3382042 2.4500692,8.9770602 2.4500697,8.525279 2.4500692,7.9982047 2.6257613,7.600806 2.9771463,7.3330822 3.3313181,7.0653637 3.8583942,6.931503 4.5583761,6.9314999 h 1.079252 V 6.8562044 C 5.6376245,6.5020335 5.5204964,6.2287347 5.2862438,6.0363064 5.0547731,5.8410969 4.728488,5.7434902 4.3073872,5.7434861 4.0396636,5.7434902 3.7789144,5.7755609 3.5251386,5.8396985 3.2713597,5.9038441 3.027343,6.0000564 2.7930879,6.1283357 V 5.4172006 C 3.074752,5.3084432 3.3480508,5.2275692 3.6129847,5.1745779 3.8779154,5.1188077 4.135876,5.0909209 4.3868671,5.0909151 5.0645337,5.0909196 5.5706942,5.2666118 5.9053496,5.6179915 6.2399971,5.96938 6.4073227,6.5020335 6.4073273,7.215954 m 6.7136607,5.044843 H 14 v -0.879012 h -0.879012 z m -1.758023,0 h 0.879012 v -0.879012 h -0.879012 z m -1.758023,0 h 0.879012 V 11.381785 H 9.604942 Z m -1.758023,0 H 8.7259306 V 11.381785 H 7.846919 Z m -1.7580231,0 H 6.9679074 V 11.381785 H 6.0888959 Z m -1.7580232,0 H 5.2098843 V 11.381785 H 4.3308727 Z m -1.7580232,0 H 3.4518611 V 11.381785 H 2.5728495 Z M 0,9.6503073 H 0.8790116 V 8.7712952 H 0 Z M 13.120988,10.551294 H 14 V 9.6722827 h -0.879012 z m 0,-1.7580235 H 14 V 7.9142594 h -0.879012 z m 0,-1.7580232 H 14 V 6.1562359 h -0.879012 z m 0,-1.7580231 H 14 V 4.3982126 h -0.879012 z m 0,-1.7580232 H 14 V 2.6401894 H 13.120988 Z M 0,7.8922842 H 0.8790116 V 7.0132722 H 0 Z M 0,6.1342606 H 0.8790116 V 5.2552489 H 0 Z M 0,4.3762372 H 0.8790116 V 3.4972258 H 0 Z M 0,2.6182141 H 0.8790116 V 1.7392025 H 0 Z m 12.246057,0.015013 h 0.879011 V 1.7542152 h -0.879011 z m -1.758024,0 h 0.879012 V 1.7542152 h -0.879012 z m -1.7580228,0 H 9.609022 V 1.7542152 H 8.7300102 Z m -1.7580232,0 H 7.8509986 V 1.7542152 H 6.971987 Z m -1.7580231,0 H 6.0929755 V 1.7542152 H 5.2139639 Z m -1.7580232,0 H 4.3349523 V 1.7542152 H 3.4559407 Z m -1.7580232,0 H 2.5769291 V 1.7542152 H 1.6979175 Z"
     id="path2"
     inkscape:connector-curvature="0"
     style="stroke-width:1.16666663" />
</svg>
