<?xml version="1.0" encoding="UTF-8" standalone="no"?>
<svg
   xmlns:dc="http://purl.org/dc/elements/1.1/"
   xmlns:cc="http://creativecommons.org/ns#"
   xmlns:rdf="http://www.w3.org/1999/02/22-rdf-syntax-ns#"
   xmlns:svg="http://www.w3.org/2000/svg"
   xmlns="http://www.w3.org/2000/svg"
   xmlns:sodipodi="http://sodipodi.sourceforge.net/DTD/sodipodi-0.dtd"
   xmlns:inkscape="http://www.inkscape.org/namespaces/inkscape"
   role="img"
   focusable="false"
   aria-hidden="true"
   viewBox="0 0 14 14"
   version="1.1"
   id="svg4"
   sodipodi:docname="link.svg"
   inkscape:version="0.92.5 (2060ec1f9f, 2020-04-08)">
  <metadata
     id="metadata10">
    <rdf:RDF>
      <cc:Work
         rdf:about="">
        <dc:format>image/svg+xml</dc:format>
        <dc:type
           rdf:resource="http://purl.org/dc/dcmitype/StillImage" />
      </cc:Work>
    </rdf:RDF>
  </metadata>
  <defs
     id="defs8" />
  <sodipodi:namedview
     pagecolor="#ffffff"
     bordercolor="#666666"
     borderopacity="1"
     objecttolerance="10"
     gridtolerance="10"
     guidetolerance="10"
     inkscape:pageopacity="0"
     inkscape:pageshadow="2"
     inkscape:window-width="1366"
     inkscape:window-height="708"
     id="namedview6"
     showgrid="false"
     inkscape:zoom="16.857143"
     inkscape:cx="7"
     inkscape:cy="7"
     inkscape:window-x="0"
     inkscape:window-y="0"
     inkscape:window-maximized="1"
     inkscape:current-layer="svg4" />
  <path
     d="m 12.352947,10.294117 q 0,-0.3431363 -0.240205,-0.583332 L 10.32843,7.926471 Q 10.088237,7.6862742 9.745097,7.6862742 q -0.36029,0 -0.617645,0.2745108 0.02578,0.025737 0.162995,0.1587005 0.137246,0.1329662 0.184426,0.184436 0.04713,0.051473 0.128684,0.1629903 0.08143,0.1115217 0.111533,0.21875 0.02998,0.1072284 0.02998,0.235907 0,0.3431365 -0.240193,0.5833334 -0.240193,0.2401956 -0.5833333,0.2401956 -0.1286834,0 -0.2359117,-0.030018 Q 8.5784183,9.6850495 8.466885,9.6035578 8.3553517,9.5220662 8.3039017,9.4748815 8.2524517,9.4277015 8.1194633,9.2904443 7.9864983,9.1531895 7.9607617,9.1274552 7.67767,9.3933863 7.67767,9.7536798 q 0,0.3431382 0.2401933,0.5833332 l 1.7671617,1.775736 q 0.231618,0.231618 0.583333,0.231618 0.34314,0 0.583334,-0.22304 l 1.261026,-1.25245 q 0.240205,-0.240197 0.240205,-0.574756 z M 6.3223067,4.2463237 q 0,-0.3431377 -0.2401934,-0.5833334 L 4.3149517,1.8872548 Q 4.0747583,1.6470592 3.7316183,1.6470592 q -0.334565,0 -0.5833333,0.2316171 L 1.8872583,3.1311268 q -0.240205,0.2401969 -0.240205,0.574756 0,0.3431365 0.240205,0.5833322 L 3.67157,6.073529 q 0.2316183,0.2316183 0.5833333,0.2316183 0.36029,0 0.617645,-0.2659323 Q 4.846765,6.0134783 4.7095533,5.8805145 4.5723067,5.7475483 4.5251267,5.6960785 4.4779933,5.6446052 4.3964433,5.5330882 4.31501,5.4215665 4.28491,5.3143382 4.2549267,5.2071098 4.2549267,5.0784312 q 0,-0.3431365 0.2401933,-0.5833334 0.2401933,-0.2401956 0.5833333,-0.2401956 0.1286834,0 0.2359117,0.030018 0.1072167,0.030018 0.21875,0.1115217 0.1115333,0.081492 0.1629833,0.1286763 0.05145,0.04718 0.1844384,0.1844372 0.132965,0.1372548 0.1587016,0.1629891 Q 6.32233,4.6066137 6.32233,4.2463202 Z M 14,10.294117 q 0,1.029412 -0.729167,1.741422 L 12.009807,13.28799 Q 11.29779,14 10.268382,14 9.230387,14 8.5183817,13.270833 L 6.75122,11.495098 q -0.712005,-0.71201 -0.712005,-1.7414217 0,-1.0551473 0.7549033,-1.7928913 L 6.039215,7.2058828 Q 5.3014733,7.960785 4.2549033,7.960785 q -1.0294083,0 -1.75,-0.7205893 L 0.7205882,5.4558828 Q 0,4.7352947 0,3.7058828 0,2.676471 0.7291667,1.9644613 L 1.9901933,0.71200967 Q 2.70221,0 3.7316183,0 q 1.037995,0 1.75,0.72916667 L 7.24878,2.5049022 q 0.712005,0.7120096 0.712005,1.7414215 0,1.0551473 -0.7549033,1.7928913 L 7.960785,6.7941172 Q 8.6985267,6.039215 9.745097,6.039215 q 1.029408,0 1.75,0.7205893 l 1.784311,1.7843129 Q 14,9.2647053 14,10.294117 Z"
     id="path2"
     inkscape:connector-curvature="0"
     style="stroke-width:1.16666663" />
</svg>
