<?xml version="1.0" encoding="UTF-8" standalone="no"?>
<svg
   xmlns:dc="http://purl.org/dc/elements/1.1/"
   xmlns:cc="http://creativecommons.org/ns#"
   xmlns:rdf="http://www.w3.org/1999/02/22-rdf-syntax-ns#"
   xmlns:svg="http://www.w3.org/2000/svg"
   xmlns="http://www.w3.org/2000/svg"
   xmlns:sodipodi="http://sodipodi.sourceforge.net/DTD/sodipodi-0.dtd"
   xmlns:inkscape="http://www.inkscape.org/namespaces/inkscape"
   role="img"
   focusable="false"
   aria-hidden="true"
   viewBox="0 0 14 14"
   version="1.1"
   id="svg4"
   sodipodi:docname="orderedlist.svg"
   inkscape:version="0.92.5 (2060ec1f9f, 2020-04-08)">
  <metadata
     id="metadata10">
    <rdf:RDF>
      <cc:Work
         rdf:about="">
        <dc:format>image/svg+xml</dc:format>
        <dc:type
           rdf:resource="http://purl.org/dc/dcmitype/StillImage" />
      </cc:Work>
    </rdf:RDF>
  </metadata>
  <defs
     id="defs8" />
  <sodipodi:namedview
     pagecolor="#ffffff"
     bordercolor="#666666"
     borderopacity="1"
     objecttolerance="10"
     gridtolerance="10"
     guidetolerance="10"
     inkscape:pageopacity="0"
     inkscape:pageshadow="2"
     inkscape:window-width="1366"
     inkscape:window-height="708"
     id="namedview6"
     showgrid="false"
     inkscape:zoom="16.857143"
     inkscape:cx="7"
     inkscape:cy="7"
     inkscape:window-x="0"
     inkscape:window-y="0"
     inkscape:window-maximized="1"
     inkscape:current-layer="svg4" />
  <path
     d="m 2.8972885,12.649467 q 0,0.628155 -0.4279217,0.989345 Q 2.0414335,14 1.4054252,14 q -0.8323,0 -1.3505334,-0.518227 l 0.4475567,-0.690972 q 0.384755,0.353338 0.8323117,0.353338 0.22771,0 0.396515,-0.113855 0.1688166,-0.113855 0.1688166,-0.333706 0,-0.502524 -0.8244483,-0.439709 l -0.204155,-0.439708 q 0.062883,-0.07852 0.2551967,-0.341559 0.1923716,-0.26304 0.3337016,-0.424004 0.1413417,-0.160965 0.2905234,-0.3023 v -0.0078 q -0.1256267,0 -0.3808234,0.0078 -0.255185,0.0078 -0.3808116,0.0078 v 0.416149 H 0.1569635 V 9.9797728 h 2.6146983 v 0.6909702 l -0.7459316,0.902973 q 0.4004466,0.09422 0.6360083,0.384744 0.23555,0.290523 0.23555,0.69097 z m 0.01575,-4.9231633 V 8.9747618 H 0.0706418 Q 0.0235085,8.6920925 0.0235085,8.5507578 q 0,-0.4004501 0.18452,-0.7302306 0.18452,-0.3297805 0.4436367,-0.5339309 0.2591166,-0.2041503 0.5182216,-0.372967 0.2591167,-0.1688178 0.4436367,-0.3415591 0.18452,-0.1727425 0.18452,-0.3533379 0,-0.1962975 -0.1138667,-0.3022985 -0.1138666,-0.1060033 -0.3101466,-0.1060033 -0.3611884,0 -0.6360084,0.4554118 L 0.0706068,5.8025788 q 0.1884517,-0.400449 0.5614117,-0.6242285 0.3729717,-0.2237806 0.82838,-0.2237806 0.573195,0 0.96579,0.3258558 0.392595,0.3258547 0.392595,0.8833417 0,0.3925973 -0.2669683,0.718452 -0.2669567,0.3258558 -0.5888867,0.5064511 -0.32193,0.180593 -0.59283,0.396522 -0.2708883,0.2159279 -0.27874,0.4122265 H 2.0885552 V 7.7263025 H 2.9130035 Z M 13.976422,10.231072 v 1.507571 q 0,0.102072 -0.07455,0.176668 -0.07455,0.0746 -0.176668,0.0746 H 4.1772502 q -0.1020834,0 -0.1766684,-0.0746 -0.07455,-0.0746 -0.07455,-0.176668 v -1.507571 q 0,-0.109924 0.0707,-0.180596 0.0707,-0.070665 0.1805884,-0.070665 h 9.5479538 q 0.102083,0 0.176668,0.074597 0.07455,0.0746 0.07455,0.17667 z M 2.9208902,3.1721818 v 0.7773419 h -2.63039 V 3.1721818 h 0.8401516 q 0,-0.3219288 0.0035,-0.957936 0.0035,-0.6360071 0.0035,-0.9500843 v -0.09422 h -0.01575 q -0.062767,0.133483 -0.392595,0.424004 L 0.1726668,0.9971955 1.2405402,0 h 0.8323 V 3.1721818 H 2.9208435 Z M 13.976422,6.2108807 V 7.718452 q 0,0.1020717 -0.07455,0.1766683 -0.07455,0.074597 -0.176668,0.074597 H 4.1772502 q -0.1020834,0 -0.1766684,-0.074597 -0.07455,-0.074597 -0.07455,-0.1766683 V 6.2108807 q 0,-0.1099234 0.0707,-0.1805954 0.0707,-0.070665 0.1805884,-0.070665 h 9.5479538 q 0.102083,0 0.176668,0.074597 0.07455,0.074597 0.07455,0.1766683 z m 0,-4.020191 V 3.698261 q 0,0.1020717 -0.07455,0.1766683 -0.07455,0.074597 -0.176668,0.074597 H 4.1772502 q -0.1020834,0 -0.1766684,-0.074597 -0.07455,-0.074597 -0.07455,-0.1766683 V 2.1906897 q 0,-0.1020717 0.07455,-0.1766684 0.07455,-0.074597 0.1766684,-0.074597 h 9.5479528 q 0.102084,0 0.176668,0.074597 0.07455,0.074597 0.07455,0.1766684 z"
     id="path2"
     inkscape:connector-curvature="0"
     style="stroke-width:1.16666663" />
</svg>
