<?xml version="1.0" encoding="UTF-8" standalone="no"?>
<svg
   xmlns:dc="http://purl.org/dc/elements/1.1/"
   xmlns:cc="http://creativecommons.org/ns#"
   xmlns:rdf="http://www.w3.org/1999/02/22-rdf-syntax-ns#"
   xmlns:svg="http://www.w3.org/2000/svg"
   xmlns="http://www.w3.org/2000/svg"
   xmlns:sodipodi="http://sodipodi.sourceforge.net/DTD/sodipodi-0.dtd"
   xmlns:inkscape="http://www.inkscape.org/namespaces/inkscape"
   role="img"
   focusable="false"
   aria-hidden="true"
   viewBox="0 0 14 14"
   version="1.1"
   id="svg4"
   sodipodi:docname="pencil.svg"
   inkscape:version="0.92.5 (2060ec1f9f, 2020-04-08)">
  <metadata
     id="metadata10">
    <rdf:RDF>
      <cc:Work
         rdf:about="">
        <dc:format>image/svg+xml</dc:format>
        <dc:type
           rdf:resource="http://purl.org/dc/dcmitype/StillImage" />
      </cc:Work>
    </rdf:RDF>
  </metadata>
  <defs
     id="defs8" />
  <sodipodi:namedview
     pagecolor="#ffffff"
     bordercolor="#666666"
     borderopacity="1"
     objecttolerance="10"
     gridtolerance="10"
     guidetolerance="10"
     inkscape:pageopacity="0"
     inkscape:pageshadow="2"
     inkscape:window-width="1366"
     inkscape:window-height="708"
     id="namedview6"
     showgrid="false"
     inkscape:zoom="16.857143"
     inkscape:cx="7"
     inkscape:cy="7"
     inkscape:window-x="0"
     inkscape:window-y="0"
     inkscape:window-maximized="1"
     inkscape:current-layer="svg4" />
  <path
     d="M 3.3544583,12.817162 4.19538,11.976238 2.0237583,9.8046212 1.1828367,10.645545 v 0.988778 h 1.1828366 v 1.182839 z M 8.1874567,4.2415835 q 0,-0.2032998 -0.2033034,-0.2032998 -0.0924,0 -0.1570916,0.064692 L 2.81848,9.1115558 q -0.064633,0.064692 -0.064633,0.1570964 0,0.2032998 0.2032916,0.2032998 0.0924,0 0.1571034,-0.064692 L 8.1228233,4.3986798 q 0.064633,-0.064692 0.064633,-0.1570963 z M 7.68845,2.4673262 11.532675,6.3115512 3.844225,14 H 0 V 10.155775 Z M 14,3.3544548 q 0,0.4897702 -0.341915,0.831684 L 12.124093,5.7201317 8.2798683,1.8759078 9.81386,0.351155 Q 10.146535,0 10.645542,0 q 0.489766,0 0.840921,0.351155 l 2.171622,2.1623758 Q 14,2.873927 14,3.3544548 Z"
     id="path2"
     inkscape:connector-curvature="0"
     style="stroke-width:1.16666663" />
</svg>
