<?xml version="1.0" encoding="UTF-8" standalone="no"?>
<svg
   xmlns:dc="http://purl.org/dc/elements/1.1/"
   xmlns:cc="http://creativecommons.org/ns#"
   xmlns:rdf="http://www.w3.org/1999/02/22-rdf-syntax-ns#"
   xmlns:svg="http://www.w3.org/2000/svg"
   xmlns="http://www.w3.org/2000/svg"
   xmlns:sodipodi="http://sodipodi.sourceforge.net/DTD/sodipodi-0.dtd"
   xmlns:inkscape="http://www.inkscape.org/namespaces/inkscape"
   width="14"
   height="14"
   viewBox="0 0 14 14"
   version="1.1"
   id="svg7"
   sodipodi:docname="question.svg"
   inkscape:version="0.92.5 (2060ec1f9f, 2020-04-08)">
  <metadata
     id="metadata11">
    <rdf:RDF>
      <cc:Work
         rdf:about="">
        <dc:format>image/svg+xml</dc:format>
        <dc:type
           rdf:resource="http://purl.org/dc/dcmitype/StillImage" />
        <dc:title></dc:title>
      </cc:Work>
    </rdf:RDF>
  </metadata>
  <sodipodi:namedview
     pagecolor="#ffffff"
     bordercolor="#666666"
     borderopacity="1"
     objecttolerance="10"
     gridtolerance="10"
     guidetolerance="10"
     inkscape:pageopacity="0"
     inkscape:pageshadow="2"
     inkscape:window-width="1366"
     inkscape:window-height="708"
     id="namedview9"
     showgrid="false"
     inkscape:zoom="0.23046875"
     inkscape:cx="512"
     inkscape:cy="512"
     inkscape:window-x="0"
     inkscape:window-y="0"
     inkscape:window-maximized="1"
     inkscape:current-layer="svg7" />
  <defs
     id="defs4">
    <style
       id="style2">
      .cls-1 {
        fill-rule: evenodd;
      }
    </style>
  </defs>
  <path
     id="Rounded_Rectangle_6"
     data-name="Rounded Rectangle 6"
     class="cls-1"
     d="m 5.652045,14 h 2.83832 V 11.28273 H 5.652045 Z M 2.187155,4.5131 h 2.74344 q 0,-0.78032 0.45915,-1.50437 0.45916,-0.72404 1.55807,-0.72398 1.11724,0 1.5388,0.58766 0.42156,0.58765 0.42141,1.30222 0,0.62054 -0.37849,1.13766 -0.20832,0.301 -0.54895,0.55473 l -0.69108,0.53597 q -1.02209,0.78972 -1.26816,1.3962 -0.24608,0.60649 -0.30288,2.19545 h 2.57256 q 0.009,-0.75212 0.12308,-1.10946 0.17984,-0.56415 0.72904,-0.9873 l 0.67202,-0.51707 q 1.02261,-0.78984 1.38223,-1.29753 0.61546,-0.83672 0.61545,-2.05912 0,-1.99315 -1.41919,-3.00868 Q 8.974465,-3.9999212e-5 6.829175,0 5.196355,0 4.076265,0.71461 2.301025,1.83362 2.187155,4.5131 Z"
     inkscape:connector-curvature="0"
     style="fill-rule:evenodd;stroke-width:0.01457268" />
</svg>
