<?xml version="1.0" encoding="UTF-8" standalone="no"?>
<!-- Generator: Adobe Illustrator 23.0.1, SVG Export Plug-In . SVG Version: 6.00 Build 0)  -->

<svg
   xmlns:dc="http://purl.org/dc/elements/1.1/"
   xmlns:cc="http://creativecommons.org/ns#"
   xmlns:rdf="http://www.w3.org/1999/02/22-rdf-syntax-ns#"
   xmlns:svg="http://www.w3.org/2000/svg"
   xmlns="http://www.w3.org/2000/svg"
   xmlns:sodipodi="http://sodipodi.sourceforge.net/DTD/sodipodi-0.dtd"
   xmlns:inkscape="http://www.inkscape.org/namespaces/inkscape"
   version="1.1"
   id="Layer_1"
   x="0px"
   y="0px"
   viewBox="0 0 14 14"
   xml:space="preserve"
   sodipodi:docname="rollback.svg"
   width="14"
   height="14"
   inkscape:version="0.92.5 (2060ec1f9f, 2020-04-08)"><metadata
   id="metadata21"><rdf:RDF><cc:Work
       rdf:about=""><dc:format>image/svg+xml</dc:format><dc:type
         rdf:resource="http://purl.org/dc/dcmitype/StillImage" /><dc:title></dc:title></cc:Work></rdf:RDF></metadata><defs
   id="defs19" /><sodipodi:namedview
   pagecolor="#ffffff"
   bordercolor="#666666"
   borderopacity="1"
   objecttolerance="10"
   gridtolerance="10"
   guidetolerance="10"
   inkscape:pageopacity="0"
   inkscape:pageshadow="2"
   inkscape:window-width="1366"
   inkscape:window-height="708"
   id="namedview17"
   showgrid="false"
   inkscape:zoom="0.23046875"
   inkscape:cx="512"
   inkscape:cy="512"
   inkscape:window-x="0"
   inkscape:window-y="0"
   inkscape:window-maximized="1"
   inkscape:current-layer="Layer_1" />
<style
   type="text/css"
   id="style2">
	.st0{fill-rule:evenodd;clip-rule:evenodd;}
</style>
<g
   id="g14"
   transform="matrix(0.01380175,0,0,0.01380175,-0.0388925,-0.02947783)">
	<g
   id="g10">
		<g
   id="g6">
			<path
   class="st0"
   d="m 512.4,97.7 v 112.9 c 190.3,1.3 344.1,155.9 344.1,346.5 0,191.4 -155.1,346.5 -346.5,346.5 -191.4,0 -346.5,-155.2 -346.5,-346.5 H 50.6 c 0,253.7 205.7,459.4 459.4,459.4 253.7,0 459.4,-205.7 459.4,-459.4 C 969.4,304.2 765,99 512.4,97.7 Z"
   id="path4"
   inkscape:connector-curvature="0"
   style="clip-rule:evenodd;fill-rule:evenodd" />
		</g>
		<path
   class="st0"
   d="M 486,4.4 C 469.4,12.7 295.8,132 281.8,139.5 c -12.5,6.7 -12.8,22.6 0,29.3 C 301.2,179 474,297.7 485.4,303.6 499.6,311 514,301.6 514,289 V 18.8 C 514,5 498.1,-1.7 486,4.4 Z"
   id="path8"
   inkscape:connector-curvature="0"
   style="clip-rule:evenodd;fill-rule:evenodd" />
	</g>
	<polygon
   class="st0"
   points="512.4,647 639.5,774.1 729.4,684.2 602.3,557.1 729.4,430 639.5,340.1 512.4,467.2 385.3,340.1 295.4,430 422.5,557.1 295.4,684.2 385.3,774.1 "
   id="polygon12"
   style="clip-rule:evenodd;fill-rule:evenodd" />
</g>
</svg>