<?xml version="1.0" encoding="UTF-8" standalone="no"?>
<svg
   xmlns:dc="http://purl.org/dc/elements/1.1/"
   xmlns:cc="http://creativecommons.org/ns#"
   xmlns:rdf="http://www.w3.org/1999/02/22-rdf-syntax-ns#"
   xmlns:svg="http://www.w3.org/2000/svg"
   xmlns="http://www.w3.org/2000/svg"
   xmlns:sodipodi="http://sodipodi.sourceforge.net/DTD/sodipodi-0.dtd"
   xmlns:inkscape="http://www.inkscape.org/namespaces/inkscape"
   width="14"
   height="14"
   viewBox="0 0 14 14"
   version="1.1"
   id="svg7"
   sodipodi:docname="special-character.svg"
   inkscape:version="0.92.5 (2060ec1f9f, 2020-04-08)">
  <metadata
     id="metadata11">
    <rdf:RDF>
      <cc:Work
         rdf:about="">
        <dc:format>image/svg+xml</dc:format>
        <dc:type
           rdf:resource="http://purl.org/dc/dcmitype/StillImage" />
        <dc:title></dc:title>
      </cc:Work>
    </rdf:RDF>
  </metadata>
  <sodipodi:namedview
     pagecolor="#ffffff"
     bordercolor="#666666"
     borderopacity="1"
     objecttolerance="10"
     gridtolerance="10"
     guidetolerance="10"
     inkscape:pageopacity="0"
     inkscape:pageshadow="2"
     inkscape:window-width="1366"
     inkscape:window-height="708"
     id="namedview9"
     showgrid="false"
     inkscape:zoom="0.23046875"
     inkscape:cx="512"
     inkscape:cy="512"
     inkscape:window-x="0"
     inkscape:window-y="0"
     inkscape:window-maximized="1"
     inkscape:current-layer="svg7" />
  <defs
     id="defs4">
    <style
       id="style2">
      .cls-1 {
        fill-rule: evenodd;
      }
    </style>
  </defs>
  <path
     id="_"
     data-name="※"
     class="cls-1"
     d="m 11.370769,8.0845 q 0.443318,0.41258 1.040667,0.41233 0.687569,0 1.122055,-0.41233 0.434485,-0.41232 0.434367,-1.07559 0,-0.66298 -0.461516,-1.07553 -0.461428,-0.41225 -1.094832,-0.41232 -0.633745,0 -1.058747,0.43918 -0.425505,0.4395 -0.425372,1.06661 -7.4e-5,0.64539 0.443378,1.05765 z m -10.91332889,0 q 0.425091,0.41258 1.09496499,0.41233 0.633331,0 1.049737,-0.41233 0.416095,-0.41215 0.416228,-1.07559 0,-0.66298 -0.434382,-1.07553 -0.434278,-0.41225 -1.031583,-0.41232 -0.68796899,0 -1.10397499,0.43918 -0.416613,0.43957 -0.416288,1.06669 0,0.64531 0.425298,1.05757 z M 5.6788411,2.09733 a 1.6496453,1.6496453 0 0 0 0.334782,0.47502 1.5367889,1.5367889 0 0 0 1.076826,0.43918 q 0.669372,0 1.085955,-0.43918 0.416199,-0.43907 0.416303,-1.06662 0,-0.64531 -0.452462,-1.07552 Q 7.6877841,0 7.0904941,0 6.4025251,0 5.9774491,0.43918 5.5520481,0.87859 5.5521511,1.50572 a 1.3694424,1.3694424 0 0 0 0.12669,0.59161 z m 0.325757,11.49041 Q 6.4568231,13.9999 7.0905531,14 q 0.651558,0 1.076885,-0.41226 0.424987,-0.41259 0.425313,-1.09347 0,-0.62731 -0.452462,-1.03073 -0.452461,-0.40342 -1.049795,-0.40339 -0.687969,0 -1.113045,0.42123 -0.425401,0.42143 -0.425298,1.03073 0,0.66311 0.452447,1.07563 z M 13.03043,0.1167 7.0061031,6.08673 0.96900711,0.1167 0.07269511,1.015 6.0970221,6.97239 0.07269511,12.92973 0.96900711,13.82801 7.0061031,7.85804 13.03043,13.82801 13.9139,12.92973 7.8896321,6.97239 13.9139,1.015 Z"
     inkscape:connector-curvature="0"
     style="fill-rule:evenodd;stroke-width:0.01479503" />
</svg>
