<?xml version="1.0" encoding="UTF-8" standalone="no"?>
<svg
   xmlns:dc="http://purl.org/dc/elements/1.1/"
   xmlns:cc="http://creativecommons.org/ns#"
   xmlns:rdf="http://www.w3.org/1999/02/22-rdf-syntax-ns#"
   xmlns:svg="http://www.w3.org/2000/svg"
   xmlns="http://www.w3.org/2000/svg"
   xmlns:sodipodi="http://sodipodi.sourceforge.net/DTD/sodipodi-0.dtd"
   xmlns:inkscape="http://www.inkscape.org/namespaces/inkscape"
   preserveAspectRatio="xMidYMid"
   width="14"
   height="14"
   viewBox="0 0 14 14"
   version="1.1"
   id="svg8"
   sodipodi:docname="strikethrough.svg"
   inkscape:version="0.92.5 (2060ec1f9f, 2020-04-08)">
  <metadata
     id="metadata12">
    <rdf:RDF>
      <cc:Work
         rdf:about="">
        <dc:format>image/svg+xml</dc:format>
        <dc:type
           rdf:resource="http://purl.org/dc/dcmitype/StillImage" />
        <dc:title></dc:title>
      </cc:Work>
    </rdf:RDF>
  </metadata>
  <sodipodi:namedview
     pagecolor="#ffffff"
     bordercolor="#666666"
     borderopacity="1"
     objecttolerance="10"
     gridtolerance="10"
     guidetolerance="10"
     inkscape:pageopacity="0"
     inkscape:pageshadow="2"
     inkscape:window-width="1366"
     inkscape:window-height="708"
     id="namedview10"
     showgrid="false"
     inkscape:zoom="10.429825"
     inkscape:cx="10.598851"
     inkscape:cy="5.8853378"
     inkscape:window-x="0"
     inkscape:window-y="0"
     inkscape:window-maximized="1"
     inkscape:current-layer="svg8" />
  <defs
     id="defs4">
    <style
       id="style2">
      .cls-1 {
        fill: #000;
        fill-rule: evenodd;
      }
    </style>
  </defs>
  <path
     d="M 13.618144,7.82675 H 0.3818596 c -0.1198593,0 -0.2170381,-0.097 -0.2170381,-0.2171 v -1.4955 c 0,-0.1198 0.097179,-0.217 0.2170381,-0.217 h 2.6883149 c -0.03375,-0.029 -0.06717,-0.057 -0.09999,-0.086 -0.7270773,-0.684 -1.0904533,-1.4799 -1.0904533,-2.3876 0,-0.48 0.1117475,-0.9323 0.3355409,-1.3566 0.2236034,-0.4242 0.5311194,-0.7892 0.9227104,-1.0951 0.391347,-0.3059 0.856161,-0.5442 1.39451,-0.7153 0.538214,-0.171 1.118357,-0.2565 1.740605,-0.2565 0.454315,0 0.857951,0.03 1.211018,0.089 0.35289,0.059 0.725165,0.1447 1.116701,0.2565 0.391402,0.1119 0.709403,0.1958 0.954195,0.2516 0.244602,0.056 0.436789,0.2349 0.5766835,0.2349 0.38436,0 0.646502,-0.2874 0.786396,-0.7412 h 0.946531 v 4.2702 h -0.904614 c -0.293544,-0.684 -0.67286,-1.2826 -1.1376195,-1.7957 -0.465004,-0.513 -0.978774,-0.9091 -1.541377,-1.1888 -0.562793,-0.2795 -1.141268,-0.4193 -1.735287,-0.4193 -0.636193,0 -1.144727,0.1465 -1.525629,0.439 -0.381105,0.2928 -0.571434,0.6825 -0.571434,1.1691 0,0.4474 0.19212,0.852 0.57667,1.2136 0.216577,0.1909 0.639598,0.4457 1.268696,0.7646 0.629153,0.3192 1.230213,0.6183 1.803505,0.8978 0.299554,0.1462 0.598171,0.2983 0.895879,0.4561 h 4.6247295 c 0.119872,0 0.217038,0.097 0.217038,0.217 v 1.4955 c 0,0.1199 -0.09717,0.2171 -0.217038,0.2171 z m -9.8929755,3.4304 c 0.50327,0.5525 1.058969,0.9752 1.667137,1.2678 0.608168,0.2928 1.240712,0.439 1.897835,0.439 0.475314,0 0.896544,-0.085 1.263501,-0.2565 0.366971,-0.1709 0.651752,-0.4045 0.85456,-0.7005 0.202687,-0.296 0.304057,-0.6314 0.304057,-1.0063 0,-0.5985 -0.251642,-1.1346 -0.754913,-1.6082 -0.223807,-0.2235 -0.547058,-0.3615 -0.969889,-0.5951 h 4.2098205 c 0.195646,0.4704 0.293625,0.8812 0.293625,1.414 0,0.7039 -0.199227,1.3467 -0.597668,1.9288 -0.398455,0.5821 -0.950749,1.0376 -1.656706,1.3665 -0.7060935,0.3288 -1.4784095,0.4933 -2.3172215,0.4933 -0.573292,0 -1.088852,-0.056 -1.546626,-0.1677 -0.457897,-0.1119 -0.976916,-0.2598 -1.557059,-0.444 -0.580332,-0.1841 -0.968274,-0.2763 -1.163853,-0.2763 -0.27968,0 -0.249783,0.081 -0.459442,0.2417 -0.209727,0.1613 -0.34604,0.37 -0.408941,0.6265 H 2.1123041 v -4.6469 h 0.6710814 c 0.307503,0.7301 0.438444,1.3714 0.941783,1.9239 z"
     class="cls-1"
     id="path6"
     inkscape:connector-curvature="0"
     style="fill:#000000;fill-rule:evenodd;stroke-width:0.01356488" />
</svg>
