<?xml version="1.0" encoding="UTF-8" standalone="no"?>
<svg
   xmlns:dc="http://purl.org/dc/elements/1.1/"
   xmlns:cc="http://creativecommons.org/ns#"
   xmlns:rdf="http://www.w3.org/1999/02/22-rdf-syntax-ns#"
   xmlns:svg="http://www.w3.org/2000/svg"
   xmlns="http://www.w3.org/2000/svg"
   xmlns:sodipodi="http://sodipodi.sourceforge.net/DTD/sodipodi-0.dtd"
   xmlns:inkscape="http://www.inkscape.org/namespaces/inkscape"
   role="img"
   focusable="false"
   aria-hidden="true"
   viewBox="0 0 14 14"
   version="1.1"
   id="svg4"
   sodipodi:docname="table.svg"
   inkscape:version="0.92.5 (2060ec1f9f, 2020-04-08)">
  <metadata
     id="metadata10">
    <rdf:RDF>
      <cc:Work
         rdf:about="">
        <dc:format>image/svg+xml</dc:format>
        <dc:type
           rdf:resource="http://purl.org/dc/dcmitype/StillImage" />
      </cc:Work>
    </rdf:RDF>
  </metadata>
  <defs
     id="defs8" />
  <sodipodi:namedview
     pagecolor="#ffffff"
     bordercolor="#666666"
     borderopacity="1"
     objecttolerance="10"
     gridtolerance="10"
     guidetolerance="10"
     inkscape:pageopacity="0"
     inkscape:pageshadow="2"
     inkscape:window-width="1366"
     inkscape:window-height="708"
     id="namedview6"
     showgrid="false"
     inkscape:zoom="16.857143"
     inkscape:cx="7"
     inkscape:cy="7"
     inkscape:window-x="0"
     inkscape:window-y="0"
     inkscape:window-maximized="1"
     inkscape:current-layer="svg4" />
  <path
     d="M 4.307695,11.576921 V 9.9615425 q 0,-0.1177866 -0.075717,-0.193515 Q 4.156262,9.6923105 4.038475,9.6923105 H 1.34617 q -0.1177983,0 -0.1935138,0.075717 -0.075717,0.075717 -0.075717,0.193515 v 1.6153785 q 0,0.117798 0.075717,0.193515 0.075717,0.07572 0.1935138,0.07572 h 2.692305 q 0.1177867,0 0.1935033,-0.07572 0.075717,-0.07572 0.075717,-0.193515 z m 0,-3.2307685 V 6.7307742 q 0,-0.1177867 -0.075717,-0.193515 Q 4.156262,6.4615422 4.038475,6.4615422 H 1.34617 q -0.1177983,0 -0.1935138,0.075717 -0.075717,0.075717 -0.075717,0.193515 v 1.6153783 q 0,0.1177867 0.075717,0.193515 0.075717,0.075717 0.1935138,0.075717 h 2.692305 q 0.1177867,0 0.1935033,-0.075717 0.075717,-0.075717 0.075717,-0.1935147 z M 8.61539,11.576921 V 9.9615425 q 0,-0.1177866 -0.075717,-0.193515 Q 8.4639567,9.6923109 8.34617,9.6923109 H 5.6538533 q -0.1177866,0 -0.1935033,0.075717 -0.075717,0.075717 -0.075717,0.193515 v 1.6153781 q 0,0.117798 0.075717,0.193515 0.075717,0.07572 0.1935033,0.07572 H 8.34617 q 0.1177867,0 0.1935033,-0.07572 0.075717,-0.07572 0.075717,-0.193515 z M 4.307695,5.1153842 V 3.5000059 q 0,-0.1177867 -0.075717,-0.193515 -0.075716,-0.075717 -0.193503,-0.075717 H 1.34617 q -0.1177983,0 -0.1935138,0.075717 -0.075717,0.075717 -0.075717,0.193515 v 1.615378 q 0,0.1177867 0.075717,0.193515 0.075717,0.075717 0.1935138,0.075717 h 2.692305 q 0.1177867,0 0.1935033,-0.075717 0.075717,-0.075717 0.075717,-0.193515 z M 8.61539,8.3461525 V 6.7307742 q 0,-0.1177867 -0.075717,-0.193515 Q 8.4639567,6.4615425 8.34617,6.4615425 H 5.6538533 q -0.1177866,0 -0.1935033,0.075717 -0.075717,0.075717 -0.075717,0.193515 v 1.6153783 q 0,0.1177867 0.075717,0.193515 0.075717,0.075717 0.1935033,0.075717 H 8.34617 q 0.1177867,0 0.1935033,-0.075717 0.075717,-0.075717 0.075717,-0.1935153 z m 4.307683,3.2307685 V 9.9615425 q 0,-0.1177866 -0.07572,-0.193515 -0.07572,-0.075717 -0.193515,-0.075717 H 9.961533 q -0.117787,0 -0.193504,0.075717 -0.07572,0.075717 -0.07572,0.193515 v 1.6153785 q 0,0.117798 0.07572,0.193515 0.07572,0.07572 0.193504,0.07572 h 2.692305 q 0.117798,0 0.193515,-0.07572 0.07572,-0.07572 0.07572,-0.193515 z M 8.61539,5.1153842 V 3.5000059 q 0,-0.1177867 -0.075717,-0.193515 Q 8.4639567,3.2307742 8.34617,3.2307742 H 5.6538533 q -0.1177866,0 -0.1935033,0.075717 -0.075717,0.075717 -0.075717,0.193515 v 1.615378 q 0,0.1177867 0.075717,0.193515 0.075717,0.075717 0.1935033,0.075717 H 8.34617 q 0.1177867,0 0.1935033,-0.075717 0.075717,-0.075717 0.075717,-0.193515 z m 4.307683,3.2307683 V 6.7307742 q 0,-0.1177867 -0.07572,-0.193515 -0.07572,-0.075717 -0.193515,-0.075717 H 9.961533 q -0.117787,0 -0.193504,0.075717 -0.07572,0.075717 -0.07572,0.193515 v 1.6153783 q 0,0.1177867 0.07572,0.193515 0.07572,0.075717 0.193504,0.075717 h 2.692305 q 0.117798,0 0.193515,-0.075717 0.07572,-0.075717 0.07572,-0.193515 z m 0,-3.2307683 V 3.5000059 q 0,-0.1177867 -0.07572,-0.193515 -0.07571,-0.075717 -0.193511,-0.075717 H 9.961537 q -0.117787,0 -0.193504,0.075717 -0.07572,0.075717 -0.07572,0.193515 v 1.615378 q 0,0.1177867 0.07572,0.193515 0.07572,0.075717 0.193504,0.075717 h 2.692305 q 0.117798,0 0.193515,-0.075717 0.07572,-0.075717 0.07572,-0.193515 z M 14,2.4230792 v 9.1538418 q 0,0.555298 -0.39543,0.950728 -0.39543,0.39543 -0.950728,0.39543 H 1.3461583 q -0.5552925,0 -0.950726,-0.39543 Q 0,12.132219 0,11.576921 V 2.4230792 Q 0,1.8677925 0.3954323,1.4723625 0.7908658,1.0769208 1.3461583,1.0769208 H 12.653842 q 0.555298,0 0.950728,0.3954417 Q 14,1.8677925 14,2.4230792 Z"
     id="path2"
     inkscape:connector-curvature="0"
     style="stroke-width:1.16666663" />
</svg>
