<?xml version="1.0" encoding="UTF-8" standalone="no"?>
<svg
   xmlns:dc="http://purl.org/dc/elements/1.1/"
   xmlns:cc="http://creativecommons.org/ns#"
   xmlns:rdf="http://www.w3.org/1999/02/22-rdf-syntax-ns#"
   xmlns:svg="http://www.w3.org/2000/svg"
   xmlns="http://www.w3.org/2000/svg"
   xmlns:sodipodi="http://sodipodi.sourceforge.net/DTD/sodipodi-0.dtd"
   xmlns:inkscape="http://www.inkscape.org/namespaces/inkscape"
   preserveAspectRatio="xMidYMid"
   width="14"
   height="14"
   viewBox="0 0 14 14"
   version="1.1"
   id="svg8"
   sodipodi:docname="text-height.svg"
   inkscape:version="0.92.5 (2060ec1f9f, 2020-04-08)">
  <metadata
     id="metadata12">
    <rdf:RDF>
      <cc:Work
         rdf:about="">
        <dc:format>image/svg+xml</dc:format>
        <dc:type
           rdf:resource="http://purl.org/dc/dcmitype/StillImage" />
        <dc:title></dc:title>
      </cc:Work>
    </rdf:RDF>
  </metadata>
  <sodipodi:namedview
     pagecolor="#ffffff"
     bordercolor="#666666"
     borderopacity="1"
     objecttolerance="10"
     gridtolerance="10"
     guidetolerance="10"
     inkscape:pageopacity="0"
     inkscape:pageshadow="2"
     inkscape:window-width="1366"
     inkscape:window-height="708"
     id="namedview10"
     showgrid="false"
     inkscape:zoom="0.23046875"
     inkscape:cx="512"
     inkscape:cy="512"
     inkscape:window-x="0"
     inkscape:window-y="0"
     inkscape:window-maximized="1"
     inkscape:current-layer="svg8" />
  <defs
     id="defs4">
    <style
       id="style2">
      .cls-1 {
        fill: #000;
        fill-rule: evenodd;
      }
    </style>
  </defs>
  <path
     d="M 12.58258,10.05574 H 14 l -1.77047,1.35582 -1.77051,-1.35582 h 1.42026 V 3.93889 h -1.32805 l 1.6783,-1.35518 1.67826,1.35518 H 12.58258 Z M 8.20808,3.75618 C 7.94197,3.51525 7.33192,3.39471 6.74936,3.39471 H 5.9443 v 6.18432 c 0,0.41122 0.0723,0.69755 0.21677,0.85892 0.14446,0.16149 0.44831,0.24209 0.91173,0.24209 h 0.24083 v 0.73625 h -5.029 v -0.73625 h 0.22019 c 0.4679,0 0.83781,-0.0829 0.97779,-0.24873 C 3.6225,10.26551 3.69249,9.98144 3.69249,9.57903 V 3.39471 H 2.84198 c -0.4679,0 -1.04051,0.0487 -1.26069,0.14591 C 1.36106,3.63792 1.17636,3.83141 1.02731,4.12097 0.87824,4.41065 0.7876,4.7544 0.75553,5.15238 H 0 V 2.59215 H 9.64897 V 5.15238 H 8.82737 C 8.6805,4.46256 8.47409,3.99725 8.20808,3.75618 Z"
     class="cls-1"
     id="path6"
     inkscape:connector-curvature="0"
     style="fill:#000000;fill-rule:evenodd;stroke-width:0.01032373" />
</svg>
