<?xml version="1.0" encoding="UTF-8" standalone="no"?>
<!-- Generator: Adobe Illustrator 16.0.0, SVG Export Plug-In . SVG Version: 6.00 Build 0)  -->

<svg
   xmlns:dc="http://purl.org/dc/elements/1.1/"
   xmlns:cc="http://creativecommons.org/ns#"
   xmlns:rdf="http://www.w3.org/1999/02/22-rdf-syntax-ns#"
   xmlns:svg="http://www.w3.org/2000/svg"
   xmlns="http://www.w3.org/2000/svg"
   xmlns:sodipodi="http://sodipodi.sourceforge.net/DTD/sodipodi-0.dtd"
   xmlns:inkscape="http://www.inkscape.org/namespaces/inkscape"
   version="1.1"
   id="Layer_1"
   x="0px"
   y="0px"
   width="14"
   height="14"
   viewBox="0 0 14 14"
   enable-background="new 0 0 1024 1024"
   xml:space="preserve"
   sodipodi:docname="trash.svg"
   inkscape:version="0.92.5 (2060ec1f9f, 2020-04-08)"><metadata
   id="metadata13"><rdf:RDF><cc:Work
       rdf:about=""><dc:format>image/svg+xml</dc:format><dc:type
         rdf:resource="http://purl.org/dc/dcmitype/StillImage" /><dc:title></dc:title></cc:Work></rdf:RDF></metadata><defs
   id="defs11" /><sodipodi:namedview
   pagecolor="#ffffff"
   bordercolor="#666666"
   borderopacity="1"
   objecttolerance="10"
   gridtolerance="10"
   guidetolerance="10"
   inkscape:pageopacity="0"
   inkscape:pageshadow="2"
   inkscape:window-width="1366"
   inkscape:window-height="708"
   id="namedview9"
   showgrid="false"
   inkscape:zoom="0.23046875"
   inkscape:cx="512"
   inkscape:cy="512"
   inkscape:window-x="0"
   inkscape:window-y="0"
   inkscape:window-maximized="1"
   inkscape:current-layer="Layer_1" />
<g
   id="g6"
   transform="matrix(0.01431006,0,0,0.01431006,-0.22511352,-0.32675788)">
	<g
   id="g4">
		<path
   d="m 684.868,95.723 c -38.258,0 -69.273,-30.712 -69.273,-68.606 H 389.834 c 0,37.891 -31.018,68.606 -69.276,68.606 H 15.731 v 69.894 H 994.064 V 95.723 Z M 224.755,996.884 H 785.036 L 924.92,234.799 H 84.871 Z M 688.173,355.88 c 0,-22.491 18.415,-40.721 41.121,-40.721 22.71,0 41.12,18.23 41.12,40.721 l -60.545,515.828 c 0,22.491 -18.415,40.719 -41.118,40.719 -22.707,0 -41.116,-18.229 -41.116,-40.719 z m -223.733,0 c 0,-22.491 18.413,-40.721 41.123,-40.721 22.708,0 41.115,18.23 41.115,40.721 v 515.828 c 0,22.491 -18.407,40.719 -41.115,40.719 -22.712,0 -41.123,-18.229 -41.123,-40.719 z M 269.712,315.159 c 22.711,0 41.118,18.23 41.118,40.721 l 70.229,515.828 c 0,22.491 -18.405,40.719 -41.113,40.719 -22.712,0 -41.123,-18.229 -41.123,-40.719 L 228.593,355.88 c 0.001,-22.49 18.411,-40.721 41.119,-40.721 z"
   id="path2"
   inkscape:connector-curvature="0"
   style="fill:#040507" />
	</g>
</g>
</svg>